<svg width="72" height="72" viewBox="0 0 72 72" fill="none" xmlns="http://www.w3.org/2000/svg">
<path d="M37.9584 10.7488L38.0143 10.7519L38.07 10.7467C45.8835 10.0142 52.4057 12.2378 56.976 16.7003C61.552 21.1682 64.25 27.9581 64.25 36.5C64.25 42.7976 61.4426 50.1266 56.4161 55.8816C51.4003 61.6243 44.2204 65.75 35.5 65.75C26.6878 65.75 19.2561 62.9038 14.0336 57.9782C8.81518 53.0565 5.75 46.01 5.75 37.5C5.75 35.1694 6.63062 32.2636 8.28493 29.2001C9.93319 26.1478 12.3219 22.9907 15.2689 20.1665C21.1729 14.5086 29.2303 10.264 37.9584 10.7488Z" stroke="black" stroke-width="1.5"/>
<circle cx="37" cy="28" r="3.5" fill="white" fill-opacity="0.08" stroke="black"/>
<path d="M32.9185 27.8685C33.1925 27.8685 33.4466 27.7179 33.7104 27.7179C33.7668 27.7179 34.0824 27.719 34.0367 27.6928C33.9835 27.6624 33.9387 27.5919 33.9084 27.5423C33.8587 27.4608 33.7592 27.3889 33.6839 27.3303C33.503 27.1896 32.7813 27.196 33.0105 27.1909C33.3296 27.1838 33.6287 27.0152 33.9474 27.0152C34.0553 27.0152 34.1594 27.0654 34.2625 27.0654C34.4038 27.0654 34.8277 27.0654 34.6864 27.0654C34.4846 27.0654 34.3045 27.0597 34.1106 27.0166C33.9454 26.9799 33.7727 26.8736 33.61 26.8145C33.5091 26.7778 33.4336 26.7272 33.3577 26.6513C33.2828 26.5765 33.1444 26.413 33.1444 26.3097C33.1444 26.2037 33.1193 26.1034 33.1193 25.9988C33.1193 25.9406 33.1444 25.7677 33.1444 25.8259C33.1444 25.8859 33.229 26.0274 33.2587 26.0867C33.342 26.2534 33.2641 26.7297 33.5459 26.7141C33.656 26.708 33.7561 26.7066 33.8526 26.7838C33.9327 26.8479 34.0801 26.8539 34.1733 26.8953C34.3898 26.9915 34.6227 27.0373 34.837 26.9148C34.8891 26.8851 34.8126 27.0686 34.7993 27.1282C34.7576 27.316 34.6037 27.3558 34.4368 27.4042C34.2904 27.4467 34.0898 27.5397 34.0032 27.3666C33.918 27.1962 33.8109 27.0335 33.7216 26.8647C33.5744 26.5866 33.2625 26.3737 33.2447 26.0365C33.2409 25.9635 33.2447 25.8892 33.2447 25.8162C33.2447 25.7219 33.2413 25.7624 33.2754 25.805C33.3303 25.8736 33.3176 26.0488 33.32 26.1369C33.3245 26.2963 33.3864 26.4363 33.4706 26.5579C33.5272 26.6397 33.6263 26.6992 33.6714 26.7894" stroke="white" stroke-linecap="round"/>
<path d="M7 39.1152L7.90141 45.4643L9.64163 50.9813L12.5 54.5L15.5 58.5L19.5 61L22.349 62.5L27 64L31.5 65H35.9327L39.5 64.5116L30.6745 60.2065L22.349 55.8924L18.8435 53.0163L16.6526 49.1815L14.8998 45.8261L14.0235 41.9913V37.6772L15.338 33.363L18.4053 25.6935L21.9108 21.8587L31.989 13H28.6338L25.4163 14.6685L22.7746 15.6724L20.1581 17.5446L16.9155 20.0679L13.7606 23.4867L10.6056 27.8822L8.80282 30.8126L7.90141 33.7429L7 39.1152Z" fill="#D9D9D9"/>
<circle cx="23" cy="45" r="6.25" stroke="black" stroke-width="1.5"/>
<path d="M20.8331 39.8544C20.8185 39.3709 20.7 38.8958 20.6951 38.4101C20.6948 38.3812 20.7174 38.2295 20.689 38.2046C20.6876 38.2034 20.7053 38.5711 20.7089 38.6033C20.764 39.0872 20.7555 39.6018 20.8607 40.0752C20.883 40.1756 20.9159 40.4816 20.9159 40.3788C20.9159 39.986 20.9435 39.5926 20.9435 39.1982C20.9435 38.7996 21.0655 38.459 21.1352 38.0758C21.2035 37.6999 21.3001 38.8248 21.3284 39.2058C21.3493 39.4884 21.4679 39.7738 21.4679 40.0553C21.4679 40.5135 21.5507 39.1413 21.5507 38.683C21.5507 38.5746 21.5687 38.454 21.6059 38.3518C21.6674 38.1827 21.6662 38.3632 21.6887 38.453C21.7687 38.773 21.8359 39.1372 21.8543 39.468C21.8572 39.521 21.9013 39.6266 21.9309 39.6674C21.9506 39.6943 21.9647 39.8545 21.9647 39.7854C21.9647 39.5975 21.9371 39.4165 21.9371 39.2319C21.9371 38.9543 22.0123 38.6912 22.0199 38.4193C22.0247 38.2461 22.0492 38.0887 22.1793 37.9716C22.3689 37.801 22.6318 37.7845 22.8754 37.7845" stroke="white" stroke-linecap="round"/>
<path d="M22.7098 37.7293V41.5103" stroke="white" stroke-linecap="square"/>
<path d="M19.5084 37.7293C19.6721 37.7293 19.7423 37.7449 19.8258 37.8934C19.9591 38.1304 20.1747 38.3274 20.3379 38.5435C20.6857 39.0038 20.9273 39.5937 21.1367 40.1304C21.2453 40.4087 21.368 40.6968 21.4403 40.986" stroke="white" stroke-linecap="square"/>
<path d="M56 32C56 33.4875 55.8734 34.9029 55.4142 35.9935C54.9698 37.0488 54.2227 37.7893 52.9178 38.0068C51.3231 38.2726 50.1207 37.7365 49.2968 36.7475C48.4604 35.7434 47.9879 34.2352 47.9811 32.537C48.2278 30.9259 48.9189 29.7978 49.9404 28.9466C50.9724 28.0866 52.3654 27.4896 54.051 27.0002C54.8815 27.0061 55.363 27.1165 55.6454 27.2742C55.8948 27.4134 56.0277 27.6107 56.0963 27.956C56.172 28.3369 56.1573 28.8429 56.1123 29.5432C56.1052 29.6532 56.0975 29.767 56.0895 29.8847C56.0482 30.4942 56 31.2053 56 32Z" stroke="black"/>
<path d="M54.6638 28.3301C54.6638 28.0894 54.8206 27.8165 54.8965 27.5888C54.9411 27.4549 54.9271 27.2949 54.9696 27.1567C55.0144 27.011 55.0339 26.8713 55.0976 26.7312C55.1923 26.5229 55.2716 26.8373 55.3053 26.924C55.3505 27.0401 55.4212 27.1351 55.5314 27.1999C55.7257 27.3142 55.7634 27.5211 55.8239 27.7251C55.8407 27.7819 55.8305 27.8529 55.8305 27.9113C55.8305 28.0516 55.8431 27.9231 55.8738 27.8531C55.9209 27.7453 55.9502 27.5943 55.9502 27.4775C55.9502 27.3521 55.9933 27.5971 55.9967 27.6138C56.0266 27.7589 56.0515 27.9136 56.0931 28.0542C56.1263 28.166 56.1298 28.4389 56.0765 28.5395C56.0674 28.5567 55.9642 28.6474 55.9569 28.6393C55.9004 28.5765 55.9502 28.2867 55.9502 28.1988C55.9502 27.9833 55.4532 27.9362 55.2937 27.9861C55.1307 28.037 55.1383 28.1541 55.1424 28.3002C55.1472 28.4682 55.2622 28.643 55.3153 28.8021C55.378 28.9902 55.369 29.3172 55.5463 29.4354C55.8686 29.6502 56.3995 29.2726 56.5319 28.9717C56.599 28.8192 56.7188 28.5251 56.6616 28.3534C56.582 28.1147 56.3428 27.953 56.2859 27.7085C56.2312 27.4731 56.007 27.3941 55.7757 27.3445C55.6457 27.3167 55.3025 27.1946 55.2621 27.3761C55.1968 27.6701 55.2023 27.9704 55.2023 28.2703C55.2023 28.5247 55.2322 28.7706 55.2322 29.0249C55.2322 29.2345 55.1724 29.4347 55.1724 29.6465C55.1724 30.0692 55.0527 30.484 55.0527 30.903C55.0527 31.1742 55.128 31.4754 55.307 31.6941C55.5028 31.9335 55.5795 32.0398 55.9203 32.0398C56.1807 32.0398 56.448 32.0574 56.5934 31.7988C56.7992 31.4329 56.5076 30.972 56.399 30.6188C56.3776 30.5495 56.2403 30.2312 56.1746 30.2166C55.9022 30.156 55.6708 30.8751 55.6211 31.0592C55.5915 31.1688 55.5613 31.2974 55.5613 31.4116C55.5613 31.4932 55.6188 31.4714 55.6876 31.4714C56.1602 31.4714 56.1951 30.9658 56.2643 30.5922C56.306 30.3672 56.2793 30.1145 56.2793 29.8858C56.2793 29.7537 56.2844 29.6132 56.4139 29.5434C56.4713 29.5125 56.5935 29.4622 56.6383 29.5335C56.7385 29.6926 56.6497 29.9961 56.5419 30.1251C56.3705 30.3302 56.1603 30.421 55.897 30.4243C55.6768 30.4271 55.6177 30.3676 55.5015 30.185C55.3758 29.9876 55.3186 29.7248 55.2787 29.4969C55.214 29.1267 55.1689 28.6856 54.8882 28.4049C54.7283 28.2451 54.6024 28.3634 54.5208 28.5395C54.4124 28.7738 54.4244 29.1202 54.4244 29.3772C54.4244 29.5269 54.466 29.6797 54.4992 29.826C54.5346 29.9816 54.5901 30.1217 54.6339 30.2747C54.6603 30.3674 54.7428 30.4882 54.7535 30.5739C54.7669 30.6808 54.9072 30.7548 54.9563 30.8432C55.1073 31.1149 55.3785 30.7522 55.4267 30.5855C55.728 29.5424 55.4715 28.4674 55.4715 27.4093C55.4715 27.1235 55.4715 26.8376 55.4715 26.5517C55.4715 26.4648 55.4644 26.3765 55.4117 26.3107C55.3852 26.2776 55.3173 26.2935 55.292 26.2492C55.2642 26.2006 55.236 26.1291 55.189 26.1761C55.1175 26.2476 55.0773 26.3341 55.0161 26.4088C54.9882 26.443 55.0228 26.4563 55.0228 26.5052C55.0228 26.6278 55.0527 26.7511 55.0527 26.8791C55.0527 27.0226 55.0527 27.1661 55.0527 27.3096C55.0527 27.3611 55.0228 27.6503 55.0228 27.5091C55.0228 27.3661 55.0285 26.9374 55.0228 27.0803C55.0189 27.1763 54.9567 27.2753 54.9264 27.3661C54.9085 27.4197 54.9148 27.4894 54.8882 27.5373C54.8622 27.5841 54.8442 27.8229 54.8749 27.6237C54.9028 27.4419 54.9423 27.2046 55.0228 27.0437" stroke="white" stroke-linecap="square"/>
<circle cx="45.5" cy="56.5" r="3" stroke="black"/>
</svg>
